<svg width="22" height="18" viewBox="0 0 22 18" fill="none" xmlns="http://www.w3.org/2000/svg">
<path d="M20.0234 0H1.97656C0.910379 0 0.0429688 0.709699 0.0429688 1.58203V16.418C0.0429688 17.2903 0.910379 18 1.97656 18H20.0234C21.0896 18 21.957 17.2903 21.957 16.418V1.58203C21.957 0.709699 21.0896 0 20.0234 0ZM1.33203 1.58203C1.33203 1.29125 1.62117 1.05469 1.97656 1.05469H20.0234C20.3788 1.05469 20.668 1.29125 20.668 1.58203V14.7656H1.33203V1.58203ZM20.668 16.418C20.668 16.7087 20.3788 16.9453 20.0234 16.9453H1.97656C1.62117 16.9453 1.33203 16.7087 1.33203 16.418V15.8203H20.668V16.418Z" fill="#688B8A"/>
<path d="M13.793 8.5282V2.63672C13.793 2.34548 13.5044 2.10938 13.1484 2.10938C12.7925 2.10938 12.5039 2.34548 12.5039 2.63672V8.5282C11.7537 8.74589 11.2148 9.33205 11.2148 10.0195C11.2148 10.707 11.7537 11.2932 12.5039 11.5109V13.1836C12.5039 13.4748 12.7925 13.7109 13.1484 13.7109C13.5044 13.7109 13.793 13.4748 13.793 13.1836V11.5109C14.5432 11.2932 15.082 10.707 15.082 10.0195C15.082 9.33205 14.5432 8.74589 13.793 8.5282V8.5282ZM13.1484 10.5469C12.793 10.5469 12.5039 10.3103 12.5039 10.0195C12.5039 9.72875 12.793 9.49219 13.1484 9.49219C13.5038 9.49219 13.793 9.72875 13.793 10.0195C13.793 10.3103 13.5038 10.5469 13.1484 10.5469Z" fill="#688B8A"/>
<path d="M18.0898 3.60633V2.63672C18.0898 2.34548 17.8013 2.10938 17.4453 2.10938C17.0894 2.10938 16.8008 2.34548 16.8008 2.63672V3.60633C16.0506 3.82402 15.5117 4.41018 15.5117 5.09766C15.5117 5.78514 16.0506 6.3713 16.8008 6.58898V13.1836C16.8008 13.4748 17.0894 13.7109 17.4453 13.7109C17.8013 13.7109 18.0898 13.4748 18.0898 13.1836V6.58898C18.84 6.3713 19.3789 5.78514 19.3789 5.09766C19.3789 4.41018 18.84 3.82402 18.0898 3.60633ZM17.4453 5.625C17.0899 5.625 16.8008 5.38843 16.8008 5.09766C16.8008 4.80688 17.0899 4.57031 17.4453 4.57031C17.8007 4.57031 18.0898 4.80688 18.0898 5.09766C18.0898 5.38843 17.8007 5.625 17.4453 5.625Z" fill="#688B8A"/>
<path d="M9.49609 3.60633V2.63672C9.49609 2.34548 9.20752 2.10938 8.85156 2.10938C8.49561 2.10938 8.20703 2.34548 8.20703 2.63672V3.60633C7.45684 3.82402 6.91797 4.41018 6.91797 5.09766C6.91797 5.78514 7.45684 6.3713 8.20703 6.58898V13.1836C8.20703 13.4748 8.49561 13.7109 8.85156 13.7109C9.20752 13.7109 9.49609 13.4748 9.49609 13.1836V6.58898C10.2463 6.3713 10.7852 5.78514 10.7852 5.09766C10.7852 4.41018 10.2463 3.82402 9.49609 3.60633ZM8.85156 5.625C8.49617 5.625 8.20703 5.38843 8.20703 5.09766C8.20703 4.80688 8.49617 4.57031 8.85156 4.57031C9.20696 4.57031 9.49609 4.80688 9.49609 5.09766C9.49609 5.38843 9.20696 5.625 8.85156 5.625Z" fill="#688B8A"/>
<path d="M5.19922 8.5282V2.63672C5.19922 2.34548 4.91064 2.10938 4.55469 2.10938C4.19873 2.10938 3.91016 2.34548 3.91016 2.63672V8.5282C3.15996 8.74589 2.62109 9.33205 2.62109 10.0195C2.62109 10.707 3.15996 11.2932 3.91016 11.5109V13.1836C3.91016 13.4748 4.19873 13.7109 4.55469 13.7109C4.91064 13.7109 5.19922 13.4748 5.19922 13.1836V11.5109C5.94941 11.2932 6.48828 10.707 6.48828 10.0195C6.48828 9.33205 5.94941 8.74589 5.19922 8.5282V8.5282ZM4.55469 10.5469C4.19929 10.5469 3.91016 10.3103 3.91016 10.0195C3.91016 9.72875 4.19929 9.49219 4.55469 9.49219C4.91008 9.49219 5.19922 9.72875 5.19922 10.0195C5.19922 10.3103 4.91008 10.5469 4.55469 10.5469Z" fill="#688B8A"/>
</svg>
