<svg width="57" height="40" viewBox="0 0 57 40" fill="none" xmlns="http://www.w3.org/2000/svg">
<path d="M48.9983 6.91086C46.7784 6.76173 44.2664 6.32049 41.532 5.59961C38.2471 4.7333 35.0584 4.86703 32.0544 5.99682C31.6307 6.15617 31.4349 6.58582 31.617 6.95654C31.7991 7.32706 32.2896 7.49869 32.7139 7.33924C35.3469 6.34893 38.1518 6.23419 41.0502 6.99852C43.8997 7.74989 46.5308 8.21041 48.8705 8.36762C48.8922 8.36918 48.9139 8.36977 48.9352 8.36977C49.3674 8.36977 49.7332 8.07843 49.7669 7.69515C49.8022 7.29287 49.458 6.94173 48.9983 6.91086V6.91086Z" fill="#A1D6E2"/>
<path d="M48.9981 10.0156C46.7788 9.86659 44.2669 9.42545 41.532 8.70437C38.2471 7.83806 35.0584 7.9718 32.0544 9.10159C31.6307 9.26094 31.4349 9.69059 31.617 10.0613C31.7991 10.4319 32.2896 10.6035 32.7139 10.444C35.3469 9.4537 38.1518 9.33896 41.0502 10.1033C43.9003 10.8548 46.5313 11.3154 48.8706 11.4724C48.8923 11.4739 48.9139 11.4745 48.9352 11.4745C49.3674 11.4745 49.7332 11.1832 49.7669 10.7998C49.8022 10.3975 49.458 10.0465 48.9981 10.0156V10.0156Z" fill="#A1D6E2"/>
<path d="M48.9983 25.5396C46.7783 25.3905 44.2663 24.9493 41.532 24.2283C38.2473 23.362 35.0588 23.4958 32.0544 24.6256C31.6307 24.785 31.4349 25.2146 31.617 25.5853C31.7991 25.9558 32.2896 26.1275 32.7139 25.968C35.347 24.9777 38.1519 24.8632 41.0502 25.6272C43.8995 26.3786 46.5307 26.8392 48.8705 26.9964C48.8922 26.998 48.9139 26.9985 48.9352 26.9985C49.3674 26.9985 49.7332 26.7072 49.7669 26.3239C49.8022 25.9217 49.458 25.5705 48.9983 25.5396V25.5396Z" fill="#A1D6E2"/>
<path d="M48.9983 28.6444C46.7784 28.4953 44.2664 28.054 41.532 27.3331C38.2471 26.4669 35.0584 26.6006 32.0544 27.7304C31.6307 27.8897 31.4349 28.3194 31.617 28.6901C31.7991 29.0607 32.2896 29.2322 32.7139 29.0728C35.3469 28.0825 38.1518 27.9677 41.0502 28.7321C43.8997 29.4834 46.5308 29.944 48.8705 30.1012C48.8922 30.1027 48.9139 30.1033 48.9352 30.1033C49.3674 30.1033 49.7332 29.812 49.7669 29.4287C49.8022 29.0264 49.458 28.6753 48.9983 28.6444V28.6444Z" fill="#A1D6E2"/>
<path d="M48.9983 13.1205C46.7783 12.9714 44.2663 12.5301 41.532 11.8092C38.2473 10.9429 35.0588 11.0766 32.0544 12.2065C31.6307 12.3658 31.4349 12.7955 31.617 13.1662C31.7991 13.5367 32.2896 13.7082 32.7139 13.5489C35.347 12.5586 38.1519 12.4439 41.0502 13.2081C43.8995 13.9594 46.5307 14.4201 48.8705 14.5773C48.8922 14.5788 48.9139 14.5794 48.9352 14.5794C49.3674 14.5794 49.7332 14.2881 49.7669 13.9048C49.8022 13.5025 49.458 13.1514 48.9983 13.1205V13.1205Z" fill="#A1D6E2"/>
<path d="M48.9981 19.3299C46.7788 19.181 44.2669 18.7398 41.532 18.0188C38.2473 17.1525 35.0586 17.2862 32.0544 18.416C31.6307 18.5753 31.4349 19.005 31.617 19.3757C31.7991 19.7463 32.2896 19.9178 32.7139 19.7584C35.3468 18.7682 38.1518 18.6534 41.0502 19.4177C43.9003 20.1691 46.5313 20.6298 48.8706 20.7869C48.8923 20.7883 48.9139 20.7889 48.9352 20.7889C49.3674 20.7889 49.7332 20.4976 49.7669 20.1142C49.8022 19.7119 49.458 19.3609 48.9981 19.3299V19.3299Z" fill="#A1D6E2"/>
<path d="M48.9983 16.2253C46.7784 16.0762 44.2664 15.6349 41.532 14.914C38.2474 14.0477 35.0586 14.1815 32.0544 15.3112C31.6307 15.4706 31.4349 15.9002 31.617 16.271C31.7991 16.6415 32.2896 16.8131 32.7139 16.6537C35.3472 15.6634 38.1519 15.5487 41.0502 16.3129C43.8997 17.0643 46.5308 17.5248 48.8705 17.682C48.8922 17.6836 48.9139 17.6842 48.9352 17.6842C49.3674 17.6842 49.7332 17.3929 49.7669 17.0096C49.8022 16.6073 49.458 16.2562 48.9983 16.2253V16.2253Z" fill="#A1D6E2"/>
<path d="M48.9981 22.4347C46.7785 22.2857 44.2665 21.8445 41.532 21.1235C38.2473 20.2573 35.0588 20.3909 32.0544 21.5208C31.6307 21.6802 31.4349 22.1098 31.617 22.4805C31.7991 22.8511 32.2896 23.0226 32.7139 22.8632C35.347 21.8729 38.1519 21.7584 41.0502 22.5224C43.8999 23.2739 46.5309 23.7345 48.8706 23.8916C48.8923 23.8931 48.9139 23.8937 48.9352 23.8937C49.3674 23.8937 49.7332 23.6023 49.7669 23.219C49.8022 22.8167 49.458 22.4656 48.9981 22.4347V22.4347Z" fill="#A1D6E2"/>
<path d="M8.0646 8.36973C8.08598 8.36973 8.10769 8.36904 8.1294 8.36758C10.4692 8.21047 13.1002 7.74985 15.9496 6.99848C18.848 6.23425 21.6528 6.34879 24.286 7.33919C24.7096 7.49855 25.2008 7.32712 25.3829 6.9565C25.565 6.58578 25.3692 6.15613 24.9455 5.99678C21.9414 4.8669 18.7526 4.73336 15.4678 5.59957C12.7334 6.32045 10.2215 6.76169 8.00159 6.91081C7.54181 6.94159 7.19769 7.29283 7.2331 7.69511C7.2666 8.07839 7.63254 8.36973 8.0646 8.36973V8.36973Z" fill="#A1D6E2"/>
<path d="M8.0646 11.4745C8.08598 11.4745 8.10769 11.4738 8.12928 11.4723C10.4685 11.3154 13.0996 10.8547 15.9496 10.1032C18.848 9.339 21.6528 9.45345 24.286 10.444C24.7096 10.6032 25.2008 10.4319 25.3829 10.0613C25.565 9.69053 25.3692 9.26089 24.9455 9.10154C21.9414 7.97165 18.7526 7.83821 15.4678 8.70432C12.7329 9.4254 10.2209 9.86654 8.0017 10.0156C7.54181 10.0464 7.19769 10.3975 7.2331 10.7998C7.2666 11.1831 7.63254 11.4745 8.0646 11.4745V11.4745Z" fill="#A1D6E2"/>
<path d="M8.06463 26.9985C8.08601 26.9985 8.10772 26.9978 8.12943 26.9964C10.4693 26.8393 13.1003 26.3786 15.9497 25.6272C18.8482 24.8628 21.6529 24.9777 24.286 25.968C24.7096 26.1273 25.2008 25.9559 25.3829 25.5853C25.565 25.2146 25.3692 24.7849 24.9455 24.6256C21.9414 23.4957 18.7527 23.3622 15.4678 24.2283C12.7335 24.9493 10.2216 25.3905 8.00162 25.5396C7.54184 25.5704 7.19772 25.9216 7.23313 26.3239C7.26664 26.7072 7.63257 26.9985 8.06463 26.9985V26.9985Z" fill="#A1D6E2"/>
<path d="M8.06463 30.1033C8.08601 30.1033 8.10772 30.1026 8.12943 30.1012C10.4692 29.9441 13.1002 29.4834 15.9497 28.7321C18.8481 27.9678 21.6529 28.0823 24.286 29.0728C24.7096 29.2319 25.2008 29.0607 25.3829 28.6901C25.565 28.3194 25.3692 27.8897 24.9455 27.7304C21.9414 26.6005 18.7527 26.4669 15.4678 27.3331C12.7334 28.054 10.2215 28.4953 8.00162 28.6444C7.54184 28.6752 7.19772 29.0264 7.23313 29.4287C7.26664 29.812 7.63257 30.1033 8.06463 30.1033V30.1033Z" fill="#A1D6E2"/>
<path d="M8.0646 14.5793C8.08598 14.5793 8.10769 14.5786 8.1294 14.5771C10.4693 14.42 13.1003 13.9593 15.9496 13.2079C18.8482 12.4436 21.6528 12.5584 24.286 13.5487C24.7096 13.708 25.2008 13.5367 25.3829 13.166C25.565 12.7953 25.3692 12.3657 24.9455 12.2063C21.9414 11.0764 18.7526 10.9429 15.4678 11.809C12.7335 12.53 10.2216 12.9712 8.00159 13.1204C7.54181 13.1511 7.19769 13.5024 7.2331 13.9047C7.2666 14.2879 7.63254 14.5793 8.0646 14.5793V14.5793Z" fill="#A1D6E2"/>
<path d="M8.06463 20.7889C8.08601 20.7889 8.10772 20.7882 8.12932 20.7869C10.4685 20.6299 13.0997 20.1691 15.9497 19.4177C18.8481 18.6534 21.6529 18.7679 24.286 19.7584C24.7096 19.9176 25.2008 19.7463 25.3829 19.3757C25.565 19.005 25.3692 18.5753 24.9455 18.416C21.9415 17.2862 18.7529 17.1525 15.4678 18.0188C12.7329 18.7398 10.2209 19.181 8.00173 19.3299C7.54184 19.3608 7.19772 19.7119 7.23313 20.1142C7.26664 20.4976 7.63257 20.7889 8.06463 20.7889V20.7889Z" fill="#A1D6E2"/>
<path d="M8.06463 17.6842C8.08601 17.6842 8.10772 17.6835 8.12943 17.682C10.4692 17.5249 13.1002 17.0643 15.9497 16.3129C18.848 15.5488 21.6528 15.6631 24.286 16.6536C24.7096 16.8128 25.2008 16.6416 25.3829 16.2709C25.565 15.9002 25.3692 15.4706 24.9455 15.3112C21.9412 14.1813 18.7527 14.0476 15.4678 14.914C12.7334 15.6349 10.2215 16.0761 8.00162 16.2253C7.54184 16.256 7.19772 16.6073 7.23313 17.0096C7.26664 17.3928 7.63257 17.6842 8.06463 17.6842V17.6842Z" fill="#A1D6E2"/>
<path d="M8.06463 23.8937C8.08601 23.8937 8.10772 23.893 8.12932 23.8916C10.469 23.7346 13.1 23.2739 15.9497 22.5224C18.8482 21.758 21.6529 21.8729 24.286 22.8632C24.7096 23.0226 25.2008 22.8512 25.3829 22.4805C25.565 22.1098 25.3692 21.6802 24.9455 21.5208C21.9414 20.3909 18.7527 20.2573 15.4678 21.1235C12.7334 21.8445 10.2213 22.2857 8.00173 22.4347C7.54184 22.4655 7.19772 22.8167 7.23313 23.219C7.26664 23.6023 7.63257 23.8937 8.06463 23.8937V23.8937Z" fill="#A1D6E2"/>
<path d="M54.9607 4.15392H53.6536V3.48739C53.6536 2.55328 52.7428 1.81437 51.6762 1.88869C50.4441 1.97489 47.7463 1.98015 43.52 1.04254C43.0728 0.94309 42.6186 1.18007 42.5055 1.57105C42.392 1.96223 42.6626 2.35964 43.1095 2.4587C47.346 3.39855 50.1791 3.45963 51.8096 3.34498C51.9046 3.33914 51.9835 3.40372 51.9835 3.48739V32.9674C48.8207 33.2659 44.5956 32.4737 41.532 31.6661C34.6896 29.8618 30.2662 32.9615 29.3349 33.4032V4.20233C30.2371 3.46196 33.8734 0.839646 39.2854 1.60154C39.7404 1.66622 40.1691 1.39485 40.2425 0.996467C40.3159 0.598181 40.0063 0.223272 39.5509 0.159083C33.8682 -0.64197 29.9467 1.78671 28.4979 2.89273C25.176 0.372106 20.4242 -0.747556 15.4679 0.559609C10.1483 1.96223 6.82867 1.99389 5.32384 1.88879C4.25576 1.81379 3.34654 2.55503 3.34654 3.48739V4.15392H2.03921C0.914787 4.15392 0 4.9542 0 5.93808V35.5629C0 36.5468 0.914898 37.3471 2.03932 37.3471H23.6734C23.9975 37.3471 24.2916 37.5036 24.4225 37.7461C26.043 40.7458 30.9509 40.7568 32.5773 37.7461C32.7083 37.5038 33.0024 37.3471 33.3265 37.3471H54.9606C56.085 37.3471 56.9997 36.5467 56.9997 35.5629V21.7086C56.9997 21.3051 56.6259 20.9781 56.1647 20.9781C55.7035 20.9781 55.3297 21.3051 55.3297 21.7086V35.5628C55.3297 35.741 55.1642 35.8859 54.9606 35.8859H33.3267C32.3599 35.8859 31.4733 36.3709 31.0677 37.1217C30.047 39.0108 26.9568 39.0183 25.9323 37.1218C25.5269 36.3711 24.6402 35.8859 23.6734 35.8859H2.03932C1.83559 35.8859 1.66993 35.741 1.66993 35.5628V5.93808C1.66993 5.75993 1.83559 5.61499 2.03921 5.61499H3.34654V33.5909C3.34654 33.9223 3.60159 34.2123 3.96786 34.297C4.12662 34.3339 7.95098 35.1742 15.9498 33.065C19.8199 32.0446 23.5552 32.6703 26.5189 34.4989C27.6648 35.2057 29.26 35.2525 30.4814 34.4988C32.2713 33.3944 36.0239 31.7399 41.0504 33.065C49.0496 35.1741 52.8736 34.3338 53.0324 34.297C53.3986 34.2123 53.6537 33.9223 53.6537 33.5909V5.61499H54.9608C55.1644 5.61499 55.3301 5.75993 55.3301 5.93808V18.2995C55.3301 18.703 55.7038 19.03 56.165 19.03C56.6263 19.03 57 18.703 57 18.2995V5.93808C56.9999 4.9542 56.0851 4.15392 54.9607 4.15392V4.15392ZM5.01647 3.48739C5.01647 3.40547 5.09295 3.33904 5.19036 3.34498C6.81242 3.45914 10.3677 3.43031 15.9498 1.95843C20.4705 0.766788 24.7894 1.8471 27.665 4.20292V33.4032C27.1861 33.1763 22.4912 29.8139 15.4679 31.6662C15.0176 31.7849 14.5226 31.9082 14.0646 32.0152C14.059 32.0165 14.0534 32.0179 14.048 32.0191C11.3594 32.6466 7.78287 33.2284 5.01635 32.9678C5.01646 30.9373 5.01647 4.03188 5.01647 3.48739V3.48739Z" fill="#A1D6E2"/>
</svg>
